<?xml version="1.0" encoding="utf-8"?>
<!-- Generator: Adobe Illustrator 21.1.0, SVG Export Plug-In . SVG Version: 6.00 Build 0)  -->
<svg version="1.1" id="Layer_1" xmlns="http://www.w3.org/2000/svg" xmlns:xlink="http://www.w3.org/1999/xlink" x="0px" y="0px"
	 viewBox="0 0 2879 473.5" style="enable-background:new 0 0 2879 473.5;" xml:space="preserve">
<style type="text/css">
	.st0{fill:#090B29;}
	.st1{fill:url(#SVGID_1_);}
	.st2{fill:url(#SVGID_2_);}
	.st3{fill:#57CAFF;}
	.st4{clip-path:url(#SVGID_4_);}
	.st5{fill:url(#SVGID_5_);}
	.st6{fill:#1852FA;}
</style>
<g>
	<path class="st0" d="M115.6,197.8c10.1,8.6,15.2,20.9,15.2,36.8c0,16.4-5.1,29.1-15.2,38.2c-10.1,9-24.5,13.5-43.1,13.5H32v48.4
		H17.2V184.9h55.3C91.1,184.9,105.5,189.2,115.6,197.8z M105,263.2c7.8-6.5,11.7-15.9,11.7-28.2c0-12-3.9-21.1-11.6-27.4
		c-7.7-6.3-18.8-9.4-33.2-9.4H32V273h39.9C86.2,272.9,97.2,269.7,105,263.2z"/>
	<path class="st0" d="M232,229.1c8.6,4.8,15.3,11.5,20.1,20c4.9,8.6,7.3,18.3,7.3,29.1c0,11-2.4,20.8-7.3,29.5
		c-4.9,8.6-11.6,15.4-20.1,20.1c-8.6,4.8-18.3,7.2-29.1,7.2c-10.9,0-20.6-2.4-29.1-7.2c-8.6-4.8-15.3-11.5-20.1-20.1
		c-4.9-8.6-7.3-18.5-7.3-29.5c0-10.9,2.4-20.6,7.3-29.1c4.9-8.6,11.6-15.3,20.1-20c8.6-4.8,18.3-7.2,29.1-7.2
		C213.7,221.9,223.4,224.3,232,229.1z M181,239.9c-6.4,3.7-11.4,8.9-15,15.6c-3.6,6.7-5.4,14.4-5.4,22.9c0,8.7,1.8,16.4,5.4,23.1
		c3.6,6.7,8.6,11.9,15,15.6s13.7,5.6,21.9,5.6c8.1,0,15.4-1.9,21.9-5.6c6.4-3.7,11.4-8.9,15-15.6s5.4-14.4,5.4-23.1
		c0-8.6-1.8-16.2-5.4-22.9c-3.6-6.7-8.6-11.9-15-15.6s-13.7-5.6-21.9-5.6C194.7,234.4,187.4,236.2,181,239.9z"/>
	<path class="st0" d="M266.3,222.4h15.4l34.5,98l34.1-98h15.2l34.3,98l34.3-98h15l-42,112.3h-15l-34.3-94.9l-34.3,94.9h-15
		L266.3,222.4z"/>
	<path class="st0" d="M549.6,238.5c9.1,11.1,13.4,26,12.6,44.7h-93.7c1,12,5.4,21.7,13.3,29c7.9,7.4,17.6,11,29.1,11
		c7.1,0,13.8-1.3,19.9-3.9s11.4-6.2,15.9-10.9l8.1,8.1c-5.4,5.9-12,10.4-19.6,13.6s-16,4.8-25.2,4.8c-10.9,0-20.5-2.4-28.9-7.2
		c-8.4-4.8-15-11.5-19.8-20c-4.8-8.6-7.2-18.4-7.2-29.4c0-10.9,2.4-20.6,7.2-29.3c4.8-8.6,11.4-15.4,19.8-20.1
		c8.4-4.8,17.9-7.2,28.5-7.2C527.2,221.9,540.5,227.5,549.6,238.5z M549.4,272.1c-0.7-11.7-4.6-21-11.7-28
		c-7.1-6.9-16.3-10.4-27.8-10.4c-11.3,0-20.7,3.5-28.3,10.5c-7.6,7-11.9,16.3-13.1,27.9H549.4z"/>
	<path class="st0" d="M622.6,228.9c6.9-4.5,15.3-6.8,25-7v13.5c-11.9-0.1-21.4,3.3-28.6,10.4c-7.2,7.1-11.3,16.7-12.3,28.8v60h-14.4
		V222.4h14.4v26.1C610.3,239.9,615.7,233.4,622.6,228.9z"/>
	<path class="st0" d="M754.3,238.5c9.1,11.1,13.4,26,12.6,44.7h-93.7c1,12,5.4,21.7,13.3,29c7.9,7.4,17.6,11,29.1,11
		c7.1,0,13.8-1.3,19.9-3.9c6.1-2.6,11.4-6.2,15.9-10.9l8.1,8.1c-5.4,5.9-12,10.4-19.6,13.6s-16,4.8-25.2,4.8
		c-10.9,0-20.5-2.4-28.9-7.2c-8.4-4.8-15-11.5-19.8-20c-4.8-8.6-7.2-18.4-7.2-29.4c0-10.9,2.4-20.6,7.2-29.3
		c4.8-8.6,11.4-15.4,19.8-20.1c8.4-4.8,17.9-7.2,28.5-7.2C731.9,221.9,745.2,227.5,754.3,238.5z M754.1,272.1
		c-0.7-11.7-4.6-21-11.7-28c-7.1-6.9-16.3-10.4-27.8-10.4c-11.3,0-20.7,3.5-28.3,10.5s-11.9,16.3-13.1,27.9H754.1z"/>
	<path class="st0" d="M899.2,175.6v159h-14.4V309c-4.3,8.4-10.3,15-18,19.6s-16.7,7-27,7c-10.6,0-20-2.4-28.3-7.3
		s-14.7-11.6-19.3-20.4c-4.6-8.7-6.9-18.6-6.9-29.6s2.3-20.8,7-29.4c4.6-8.6,11.1-15.3,19.3-20.1c8.2-4.9,17.5-7.3,28-7.3
		c10.3,0,19.3,2.4,27.1,7.1c7.8,4.7,13.8,11.3,18.1,19.7v-72.7L899.2,175.6L899.2,175.6z M864.3,317.4c6.4-3.8,11.5-9,15.1-15.8
		c3.6-6.7,5.5-14.4,5.5-22.9s-1.8-16.3-5.5-23c-3.6-6.8-8.7-12.1-15.1-16c-6.4-3.9-13.7-5.8-21.9-5.8c-8.1,0-15.4,1.9-21.9,5.8
		s-11.5,9.2-15.2,16c-3.7,6.8-5.6,14.5-5.6,23s1.8,16.2,5.5,22.9c3.6,6.7,8.7,12,15.2,15.8s13.8,5.7,22,5.7
		C850.5,323.1,857.8,321.2,864.3,317.4z"/>
	<path class="st0" d="M1089.4,229.1c8.2,4.8,14.6,11.5,19.2,20.1c4.6,8.6,6.9,18.5,6.9,29.5c0,10.9-2.3,20.6-6.9,29.1
		c-4.6,8.6-10.9,15.3-19.1,20c-8.1,4.8-17.4,7.2-27.9,7.2c-10.3,0-19.3-2.3-27-7c-7.7-4.6-13.7-11.1-18-19.4v25.9h-14.4v-159h14.4
		v72.7c4.1-8.3,10.1-14.8,17.9-19.4s16.8-7,26.9-7C1071.9,221.9,1081.2,224.3,1089.4,229.1z M1080.5,317c6.4-3.8,11.4-9,15-15.8
		c3.6-6.7,5.4-14.4,5.4-22.9c0-8.4-1.8-16-5.4-22.7c-3.6-6.7-8.6-12-15-15.8s-13.6-5.7-21.6-5.7c-8.1,0-15.4,1.9-21.8,5.7
		c-6.4,3.8-11.4,9-15,15.8c-3.6,6.7-5.5,14.3-5.5,22.7c0,8.6,1.8,16.2,5.4,22.9c3.6,6.7,8.6,12,15,15.8s13.7,5.7,21.9,5.7
		C1066.9,322.7,1074.1,320.8,1080.5,317z"/>
	<path class="st0" d="M1162.1,370.3c-5.6,4.4-12.1,6.6-19.4,6.6c-8.7,0-16.4-2.6-23.1-7.7l6.4-11.1c5,3.4,10.4,5.1,16.1,5.1
		c4.6,0,8.7-1.5,12.4-4.5c3.7-3,6.8-7.4,9.2-13.1l4.7-11.6l-46.5-111.7h15.2l38.6,96.5l37.1-96.5h14.8l-51.9,128.4
		C1172.3,359.3,1167.7,365.8,1162.1,370.3z"/>
</g>
<linearGradient id="SVGID_1_" gradientUnits="userSpaceOnUse" x1="1287.8" y1="-21.5838" x2="1577.1" y2="-21.5838" gradientTransform="matrix(1 0 0 -1 0 255.65)">
	<stop  offset="0.26" style="stop-color:#1852FA"/>
	<stop  offset="1" style="stop-color:#1D95FF"/>
</linearGradient>
<path class="st1" d="M1360.4,339.8V132.3h-62.5c-5.6,0-10.1,4.5-10.1,10.1v269.7c0,5.6,4.5,10.1,10.1,10.1H1567
	c5.6,0,10.1-4.5,10.1-10.1l0,0V350h-206.7C1364.9,350,1360.4,345.4,1360.4,339.8L1360.4,339.8z"/>
<linearGradient id="SVGID_2_" gradientUnits="userSpaceOnUse" x1="1360.5" y1="50.6662" x2="1650.4" y2="50.6662" gradientTransform="matrix(1 0 0 -1 0 255.65)">
	<stop  offset="8.000000e-02" style="stop-color:#1D95FF"/>
	<stop  offset="1" style="stop-color:#1852FA"/>
</linearGradient>
<path class="st2" d="M1523.6,95.9c0-12.3,2.5-24.5,7.4-35.9h-160.4c-5.6,0-10.1,4.5-10.1,10.1v269.7c0,5.6,4.5,10.2,10.1,10.2l0,0
	h269.7c5.6,0,10.1-4.5,10.1-10.1V179.4c-46.1,19.8-99.6-1.5-119.4-47.6C1526.1,120.4,1523.6,108.2,1523.6,95.9L1523.6,95.9z"/>
<path class="st3" d="M1614.5,59.7c-20,0-36.2,16.2-36.2,36.2s16.2,36.2,36.2,36.2s36.2-16.2,36.2-36.2l0,0
	C1650.7,75.9,1634.5,59.7,1614.5,59.7z"/>
<g>
	<g>
		<g>
			<defs>
				<path id="SVGID_3_" d="M1523.6,95.9c0-12.3,2.5-24.5,7.4-35.9h-160.4c-5.6,0-10.1,4.5-10.1,10.1v269.7c0,5.6,4.5,10.2,10.1,10.2
					l0,0h269.7c5.6,0,10.1-4.5,10.1-10.1V179.4c-46.1,19.8-99.6-1.5-119.4-47.6C1526.1,120.4,1523.6,108.2,1523.6,95.9L1523.6,95.9z
					"/>
			</defs>
			<clipPath id="SVGID_4_">
				<use xlink:href="#SVGID_3_"  style="overflow:visible;"/>
			</clipPath>
			<g class="st4">
				
					<linearGradient id="SVGID_5_" gradientUnits="userSpaceOnUse" x1="1287.2001" y1="-21.5838" x2="1577.1001" y2="-21.5838" gradientTransform="matrix(1 0 0 -1 0 255.65)">
					<stop  offset="0" style="stop-color:#1D95FF"/>
					<stop  offset="0.64" style="stop-color:#1852FA"/>
				</linearGradient>
				<path class="st5" d="M1301.3,132.3h254.5c11.8,0,21.3,9.5,21.3,21.3v254.5c0,7.8-6.3,14.1-14.1,14.1l0,0h-261.7
					c-7.8,0-14.1-6.3-14.1-14.1l0,0V146.5C1287.2,138.7,1293.5,132.3,1301.3,132.3L1301.3,132.3L1301.3,132.3z"/>
			</g>
		</g>
	</g>
</g>
<path class="st6" d="M1897.9,215.6c-13.1-11.3-30.3-17.7-49.2-17.7c-41.9,0-74.8,33.7-74.8,76.7s32.9,76.4,74.8,76.4
	c18.8,0,36-6.5,49.2-17.8v16.5h28.6V199.2h-28.6V215.6z M1850.1,323.2c-26.7,0-47.6-21.4-47.6-48.6s20.9-48.9,47.6-48.9
	s47.8,21.5,47.8,48.9S1876.9,323.2,1850.1,323.2z"/>
<path class="st6" d="M2073,215.6c-13-11.3-30.1-17.7-48.9-17.7c-42.1,0-75.1,33.7-75.1,76.7s33,76.4,75,76.4
	c18.7,0,35.8-6.4,48.9-17.8v16.5h28.6V132H2073V215.6z M2025.4,323.2c-26.7,0-47.6-21.4-47.6-48.6s20.9-48.9,47.6-48.9
	c26.7,0,47.6,21.5,47.6,48.9S2052.1,323.2,2025.4,323.2z"/>
<path class="st6" d="M2267.5,197.9c-18.8,0-35.8,6.4-48.9,17.7v-16.4H2190v216.4h28.6v-82.4c13.6,11.7,31,18,48.9,17.8
	c42.1,0,75.1-33.6,75.1-76.4S2309.6,197.9,2267.5,197.9z M2266.2,225.7c26.7,0,47.6,21.5,47.6,48.9s-20.9,48.6-47.6,48.6
	c-26.7,0-47.6-21.4-47.6-48.6S2239.5,225.7,2266.2,225.7z"/>
<path class="st6" d="M2481,215.6c-13.1-11.3-30.3-17.7-49.2-17.7c-42,0-74.8,33.7-74.8,76.7s32.9,76.4,74.8,76.4
	c18.8,0,36-6.5,49.2-17.8v16.5h28.6V199.2H2481V215.6z M2433.1,323.2c-26.7,0-47.6-21.4-47.6-48.6s20.9-48.9,47.6-48.9
	s47.8,21.5,47.8,48.9S2460,323.2,2433.1,323.2z"/>
<path class="st6" d="M2656.1,215.6c-13-11.3-30.1-17.7-48.9-17.7c-42,0-74.8,33.7-74.8,76.7s32.9,76.4,74.8,76.4
	c17.9,0.1,35.2-6.2,48.9-17.8v5.2c0,33.8-23.2,48.9-46.2,48.9s-38.5-8.6-48.8-27.1l-24.1,15.7c15.6,26.3,39.7,39.7,71.7,39.7h1
	c36.1-0.3,75-24.6,75-77.5V199.2h-28.6L2656.1,215.6L2656.1,215.6z M2608.2,323.2c-26.5,0-47.3-21.4-47.3-48.6s20.8-48.9,47.3-48.9
	c26.8,0,47.8,21.5,47.8,48.9S2635.1,323.2,2608.2,323.2z"/>
<path class="st6" d="M2861.3,275.9v-7c-1.8-41.4-34.9-72.5-76.9-72.5c-43.3,0-77.2,34.4-77.2,78.2c0,43.6,33.9,77.7,77.2,77.7
	c26.5,0,49.8-10.9,63.9-29.9l-21.7-16.7c-9.2,12.1-24.2,18.8-42.2,18.8c-23.6,0-42.6-16-47.4-38.7h124.4L2861.3,275.9z
	 M2738.1,258.6c6.2-20.8,24-34.5,46.3-34.5c22.8,0,40.7,13.7,46.5,34.5H2738.1z"/>
<rect x="1723" y="132.1" class="st6" width="28.5" height="217.5"/>
<path class="st6" d="M2131.8,199.6v150.1h28.5V199.5h-0.1c-4.6,2-9.5,3-14.4,3C2141,202.5,2136.2,201.5,2131.8,199.6z"/>
<path class="st6" d="M2145.9,149.8c-9,0-16.4,7.3-16.4,16.4c0,9,7.3,16.4,16.4,16.4c9,0,16.4-7.3,16.4-16.4
	C2162.3,157.2,2155,149.8,2145.9,149.8L2145.9,149.8z"/>
</svg>
